<?xml version="1.0" standalone="no"?>
<!DOCTYPE svg PUBLIC "-//W3C//DTD SVG 20010904//EN"
 "http://www.w3.org/TR/2001/REC-SVG-20010904/DTD/svg10.dtd">
<svg version="1.0" xmlns="http://www.w3.org/2000/svg"
 width="512.000000pt" height="512.000000pt" viewBox="0 0 512.000000 512.000000"
 preserveAspectRatio="xMidYMid meet">
<metadata>
Created by potrace 1.11, written by Peter Selinger 2001-2013
</metadata>
<g transform="translate(0.000000,512.000000) scale(0.100000,-0.100000)"
fill="#000000" stroke="none">
<path d="M203 2560 c0 -2332 2 -2560 16 -2555 37 15 317 117 326 120 6 1 17 5
25 8 8 4 116 43 240 87 124 45 232 84 240 87 8 3 20 7 25 9 6 1 84 30 175 64
91 33 217 79 280 101 63 23 142 51 175 64 163 63 842 305 854 305 12 0 444
-152 584 -206 21 -8 95 -35 165 -60 70 -24 143 -51 162 -59 19 -8 100 -37 180
-65 80 -28 154 -55 165 -60 11 -5 85 -32 165 -60 80 -28 154 -55 165 -60 11
-5 61 -23 110 -40 126 -45 333 -119 375 -135 81 -31 237 -88 261 -95 l26 -8
-1 2557 -1 2556 -2356 3 -2356 2 0 -2560z"/>
</g>
</svg>
